<?xml version="1.0" standalone="no"?>
<!DOCTYPE svg PUBLIC "-//W3C//DTD SVG 20010904//EN"
 "http://www.w3.org/TR/2001/REC-SVG-20010904/DTD/svg10.dtd">
<svg version="1.0" xmlns="http://www.w3.org/2000/svg"
 width="500.000000pt" height="500.000000pt" viewBox="0 0 500.000000 500.000000"
 preserveAspectRatio="xMidYMid meet">
<metadata>
Created by potrace 1.14, written by Peter Selinger 2001-2017
</metadata>
<g transform="translate(0.000000,500.000000) scale(0.100000,-0.100000)"
fill="#000000" stroke="none">
<path d="M2309 4875 c-2 -1 -33 -6 -69 -9 -36 -3 -90 -10 -120 -15 -30 -6 -71
-13 -90 -16 -19 -3 -43 -8 -52 -11 -9 -3 -25 -6 -35 -8 -138 -28 -454 -144
-533 -196 -14 -9 -34 -20 -45 -24 -19 -7 -208 -121 -230 -138 -5 -4 -37 -28
-70 -53 -108 -81 -139 -108 -243 -210 -323 -316 -567 -757 -658 -1189 -15 -71
-35 -198 -42 -259 -9 -95 -9 -414 1 -502 50 -445 228 -877 508 -1230 67 -86
281 -303 341 -348 20 -15 42 -33 50 -40 7 -7 29 -24 48 -37 19 -13 37 -27 40
-30 8 -10 218 -140 237 -147 10 -3 25 -11 33 -18 42 -33 388 -171 475 -189 6
-1 19 -5 30 -9 11 -3 32 -8 48 -11 15 -3 35 -7 45 -10 27 -8 189 -35 261 -44
81 -9 414 -9 496 0 74 8 256 38 265 43 4 2 17 6 31 8 266 50 695 255 928 445
25 20 57 46 71 57 63 51 272 269 331 345 81 104 174 246 214 326 17 32 32 61
35 64 27 25 160 374 185 485 24 109 46 219 51 260 3 28 8 64 11 80 2 17 6 113
8 215 5 234 -5 329 -61 596 -12 62 -60 212 -98 309 -122 312 -290 568 -532
813 -72 72 -134 132 -137 132 -4 0 -15 8 -25 18 -10 9 -33 28 -51 42 -18 14
-42 33 -52 43 -11 9 -20 17 -22 17 -2 0 -48 30 -103 66 -171 115 -430 230
-679 304 -44 13 -222 48 -280 56 -27 3 -59 8 -70 11 -24 6 -441 14 -446 8z"/>
</g>
</svg>
